<?xml version="1.0" encoding="utf-8"?>
<!-- Generator: Adobe Illustrator 23.0.0, SVG Export Plug-In . SVG Version: 6.00 Build 0)  -->
<svg version="1.1" id="Layer_1" xmlns="http://www.w3.org/2000/svg" xmlns:xlink="http://www.w3.org/1999/xlink" x="0px" y="0px"
	 viewBox="0 0 507.47 507.47" style="enable-background:new 0 0 507.47 507.47;" xml:space="preserve">
<style type="text/css">
	.st0{fill:#006E55;}
	.st1{fill:url(#SVGID_1_);}
	.st2{fill:#FFFFFF;stroke:#046C51;stroke-width:0.51;stroke-miterlimit:10;}
	.st3{fill:#A01D29;}
	.st4{fill:#FFFFFF;}
	.st5{fill:#FFCB05;}
	.st6{fill:#006950;}
	.st7{fill:#FFCB05;stroke:#FFCD05;stroke-width:3.129076e-03;}
	.st8{fill:#B2A336;stroke:#FFCB05;stroke-width:3.129076e-03;}
</style>
<path class="st0" d="M253.73,38.06c-119.11,0-215.67,96.56-215.67,215.67c0,119.11,96.56,215.67,215.67,215.67
	c119.11,0,215.67-96.56,215.67-215.67C469.41,134.62,372.85,38.06,253.73,38.06z M253.73,402.38
	c-82.09,0-148.64-66.55-148.64-148.64s66.55-148.64,148.64-148.64s148.64,66.55,148.64,148.64S335.83,402.38,253.73,402.38z"/>
<linearGradient id="SVGID_1_" gradientUnits="userSpaceOnUse" x1="253.7344" y1="402.377" x2="253.7344" y2="105.0918">
	<stop  offset="0" style="stop-color:#FFFFFF"/>
	<stop  offset="1" style="stop-color:#00A0DC"/>
</linearGradient>
<circle class="st1" cx="253.73" cy="253.73" r="148.64"/>
<g>
	<g>
		<path class="st2" d="M350.84,418.17c-0.04,0.29,0.11,0.74,0.32,0.94c1.85,1.82,5.57,1.66,7.33-0.24c2.12-2.29,2.33-5.96,0.66-9.11
			c-0.24-0.46-0.27-1.26-0.03-1.64c0.2-0.34,1.02-0.53,1.42-0.41c0.69,0.23,1.46,0.67,1.92,1.26c1.33,1.69,2.51,3.51,3.76,5.28
			c1.33-1,2.52-1.9,3.78-2.85c-1.84-2.5-3.63-4.92-5.42-7.33c-1.78-2.41-3.56-4.82-5.36-7.26c1.12-0.85,2.13-1.61,3.25-2.46
			c0.78,3.96,2.27,7.47,5.65,9.87c3.46,2.46,7.11,2.57,10.83,0.42c-0.95-1.42-1.84-2.75-2.73-4.08c-0.31,0.1-0.52,0.15-0.71,0.24
			c-2.67,1.07-4.57,0.44-6.43-1.92c-1.64-2.09-2.06-4.42-2.2-6.81c-0.04-0.79,0.15-1.34,0.73-1.86l8.07-7.22
			c0.3-0.24,0.6-0.48,0.85-0.68c0.7,0.74,1.28,1.34,1.93,2.02c-0.54,0.24-0.96,0.43-1.37,0.61c-3.6,1.62-5.36,5.14-4.46,8.71
			c1.12,4.45,5.71,7.19,9.29,5.23c2.48-1.36,3.48-4.42,2.03-6.47c-0.2-0.29-0.74-0.61-1.04-0.57c-1.11,0.16-2.19,0.46-2.88,0.62
			c-0.09,0.89-0.16,1.5-0.22,2.11c-0.67-0.25-1.45-0.36-1.97-0.8c-0.82-0.7-0.88-1.68-0.46-2.59c0.63-1.38,1.82-2.05,3.26-2.4
			c1.23-0.3,2.29-0.11,3.28,1.02c1.67,1.9,3.48,3.68,5.26,5.55c1.26-1.08,2.31-2.19,3.43-3.4c-4.33-4.3-8.58-8.53-12.8-12.74
			c3.36-3.71,6.94-7.07,9.98-10.89c0.15,0.58,0.09,1.04-0.02,1.47c-0.99,3.71-2.35,7.22-3.55,10.97c-0.12,0.37-0.03,1.14,0.22,1.31
			c2.22,1.52,4.52,2.93,6.82,4.36c1.46-2.9,2.58-3.9,5.43-4.74c1.12-0.33,2.34-0.45,3.43-0.78c0.42-0.12,0.94-0.19,1.2-0.48
			c1.13-1.31,2.19-2.69,3.37-4.18c-4.81-3.86-9.52-7.63-14.24-11.42c0.39-0.58,0.69-1.04,0.99-1.5c-1.31-1.03-2.54-1.99-3.8-2.99
			c-23.47,30.01-57.04,51.9-94.09,61.06c0.24,0.97,0.47,1.88,0.74,2.97c-0.43-0.2-0.65-0.29-0.87-0.41
			c-2.99-1.71-5.82-1.86-8.66-0.36c-2.11,1.2-3.87,2.65-4.8,5.21c-0.53,1.45-0.53,2.96,0.46,4.32c0.96,1.3,2.18,1.46,3.56,1.08
			c0.57-0.18,1.25-0.04,1.89-0.03l0.06,0.44c-1,0.98-2.03,1.87-3.15,2.75c1.14,1.32,2.25,2.67,3.39,3.87
			c3.5-3.08,6.77-6.06,9.99-9.09c0.88,3.53,1.7,6.83,2.51,10.11c-1.28,0.44-2.52,0.78-3.7,1.27c-2.21,0.91-3.55,2.7-3.43,4.46
			c0.19,3.06,2.36,5.4,5.48,5.59c1.24,0.08,2.53-0.07,3.75-0.31c2.38-0.5,4.11-2.35,4.38-4.77c0.05-0.3,0.09-0.6,0.19-1.23
			c1.8,0.83,3.43,1.58,4.97,2.3c0.54-0.91,1.13-1.91,1.74-2.94c-2.12-2.01-4.53-3.1-7.13-3.65c-0.8-0.17-1.18-0.52-1.4-1.35
			l-4.18-15.27c-0.1-0.38-0.16-0.78-0.23-1.15c4.31-1.37,8.51-2.71,12.72-4.04c0.32,0.9,0.62,1.72,0.95,2.65
			c-2.21-0.15-4.1,0.09-5.86,1.16c-3.88,2.36-4.64,8.41-1.11,11.95c1.59,1.57,3.5,1.96,5.53,1.2c1.73-0.65,3.09-1.75,3.25-3.82
			c0.09-1.11-0.1-1.98-1.49-2.05c-0.85-0.05-1.7-0.31-2.54-0.48l0.27,0.31l-1.07,1.59c-0.5-0.58-1.27-1.11-1.41-1.76
			c-0.14-0.68,0.12-1.68,0.56-2.18c1.92-2.22,5.69-1.16,6.77,1.78l0.89,2.48l1.52,4.23c1.65-0.49,2.99-1.18,4.5-1.76
			c-2.21-5.69-4.38-11.29-6.55-16.88c4.55-2.02,9.2-3.54,13.47-5.87l0.24,0.29c-2.74,3.79-5.98,6.82-9.19,10.41
			c1.65,2.48,3.25,4.88,4.92,7.4c1.89-2.36,4.35-2.55,7.05-2.18c1.11,0.21,2.29,0.43,3.43,0.64c0.34,0.05,0.75,0.17,1.03,0.04
			c1.58-0.81,3.16-1.62,4.87-2.5c-2.85-5.5-5.63-10.85-8.39-16.17c0.98-0.51,1.82-0.95,2.76-1.44c2.9,5.36,5.76,10.64,8.62,15.93
			c1.46-0.76,2.81-1.47,4.27-2.23c-3.04-5.3-6.03-10.5-9.02-15.73c1.55-0.97,3-1.89,4.55-2.87c0.45,2.01,0.86,3.9,1.28,5.77
			c1.33-0.39,2.47-0.85,3.67-1.05c1.76-0.28,3.37,0.96,3.76,2.78c0.37,1.7-0.7,2.74-2.33,2.24c-0.5-0.15-0.98-0.4-1.57-0.64
			C351.26,415.69,351.05,416.92,350.84,418.17z M354.77,405.21c-0.2,0.18-0.59,0.23-0.89,0.19c-0.51-0.06-1.03-0.27-1.54-0.33
			c-0.65-0.08-1.23-0.04-1.41-1.03c-0.16-0.84-0.35-1.47,0.52-1.93c1.44-0.81,2.86-1.67,4.23-2.73c0.76,1.08,1.45,2.07,2.05,2.93
			C356.77,403.46,355.75,404.3,354.77,405.21z M399.16,376.21c-2.25,1.14-4.67,2.01-7.09,2.92c0.77-2.21,1.62-4.46,2.21-7.03
			C396.06,373.6,397.62,374.92,399.16,376.21z M336.93,424.71c-2.53,0.12-5.07,0.03-7.65-0.16c1.61-1.66,3.27-3.46,4.86-5.55
			C335.13,421.02,336.03,422.88,336.93,424.71z M294.2,428.76c-0.85,0.89-1.67,1.76-2.61,2.75c-1.08-1.78-2.53-2.49-4.46-2.42
			C289.52,427.13,292.12,427.04,294.2,428.76z M302.01,447.54c0.5,0.5-0.69,2.1-1.64,2.31c-1.15,0.25-1.72-0.34-1.97-1.39
			c-0.25-1.04,0.31-1.43,1.32-1.91C300.5,446.86,301.46,446.99,302.01,447.54z"/>
		<path class="st2" d="M203.68,424.27l-0.07,0.48c-4.43,0.57-9.03,1.21-13.81,1.62c-0.45,2.93-0.89,5.78-1.35,8.76
			c2.27-0.61,3.96,0.24,5.39,1.62c1.29,1.24,2.39,2.73,3.6,4.12c0.26,0.29,0.48,0.73,0.8,0.85c1.6,0.53,3.19,1.11,4.99,1.53
			c1.04-3.9,2.04-7.66,3.12-11.75c0.93,0.94,1.79,1.59,2.37,2.47c0.35,0.52,0.4,1.41,0.28,2.1c-0.04,0.25-0.96,0.38-1.65,0.62
			c-0.63,1.19-1.36,2.58-2.09,3.96c3.78,2,7.55,0.17,8.47-4.04c0.4-1.78,0.09-3.39-0.69-4.89c-1.11-2.14-2.76-3.57-4.63-4.71
			c-0.73-0.45-0.71-0.47-0.36-1.36c3.31,0.74,6.61,1.48,10.07,2.25c-1.22,5.99-2.42,11.9-3.62,17.79c1.62,0.36,3.08,0.68,4.66,1.02
			c1.07-6,2.12-11.9,3.17-17.81c4.96,0.66,9.81,1.31,14.66,1.95l0.04,0.34c-4.28,1.38-8.69,2.74-13.31,4.11
			c0.12,2.95,0.24,5.81,0.36,8.68c3.42-0.4,4.71-0.12,6.98,1.67c0.95,0.75,1.78,1.66,2.7,2.49c0.3,0.27,0.62,0.65,0.96,0.71
			c1.74,0.36,3.52,0.28,5.46,0.4c0.42-6.19,0.84-12.21,1.25-18.21c0.67-0.03,1.19-0.05,1.73-0.08c0.1-1.64,0.19-3.19,0.29-4.9
			c-17.77-1.07-35.3-4.83-51.83-11.15c0.47-1.23,0.98-2.28,1.29-3.38c1.24-4.52,0.38-8.33-2.53-10.71c-1.44-1.2-3.03-1.96-4.7-2.47
			c-1.65-0.55-3.45-0.67-5.47-0.27c-2.31,0.46-3.88,2.16-4.22,4.39c-0.42,2.72,0.73,4.89,2.84,5.56c0.59,0.19,1.16,0.45,1.73,0.7
			c0.68,0.31,0.81,0.83,0.3,1.72c-13.07-6.35-25.44-14.07-36.79-23.19c-1.1,1.34-2.11,2.56-3.2,3.89c2.83,2.14,5.59,4.23,8.52,6.44
			c-2.88,0.28-5.04,1.45-6.17,4.22c-0.71,1.74-0.26,3.23,0.91,4.53c1.33-0.48,2.59-0.93,3.42-1.23c0.06-1.04-0.15-1.95,0.21-2.46
			c0.55-0.79,2.12-0.54,2.69,0.28c0.25,0.32,0.44,0.71,0.56,1.11c0.54,1.76-0.24,4.21-1.8,5.5c-1.48,1.22-3.99,1.54-5.52,0.39
			c-2.72-1.9-3.67-5.47-2.36-9.4c0.38-1.16,0.92-2.27,1.42-3.44c-1.3-0.66-2.58-1.3-3.87-1.95c-2.2,3.6-3.22,7.19-2.67,11.07
			c0.63,4.35,3.36,7.65,6.72,8.85c3.46,1.08,7.37,0.22,10.29-3.07c0.05-0.05,0.16-0.05,0.24-0.07c0.79,0.42,0.61,0.98,0.17,1.67
			c-1.28,2.03-2.55,4.05-3.87,6.14c1.37,0.87,2.63,1.66,4.04,2.55c3.12-5.25,6.2-10.44,9.27-15.6c1.17,0.73,2.18,1.43,3.34,1.98
			c-0.4,0.35-0.71,0.62-1.02,0.89c-2.01,1.88-2.7,5.11-1.43,7.29c1.11,1.92,3.57,2.71,5.2,1.6c0.36-0.24,0.75-0.73,0.8-1.13
			c0.13-1.02,0.09-2.06,0.13-3.15c-0.22,0.07-0.34,0.12-0.45,0.13c-0.51,0.05-1.04,0.15-1.52,0.06c-0.12-0.02-0.23-0.84-0.06-1.04
			c0.37-0.44,0.91-0.95,1.4-1.02c1.48-0.22,2.85,1.24,2.78,2.76c-0.09,2.04-1.94,4.62-3.87,5.26c-1.99,0.67-4.11-0.16-5.22-2.07
			c-0.4-0.69-0.69-1.44-1.05-2.22c-1.41,0.92-2.76,1.78-4.05,2.54c0.87,3.24,2.93,5.22,5.85,6.44c-0.87,3.41-0.36,6.5,1.86,9.37
			c1.3-1.03,2.54-2,3.69-2.91c-0.38-0.97-0.79-1.76-0.98-2.59c-0.5-2.21,0.16-3.4,2.08-4.31c0.52-0.25,1.07-0.5,1.49-0.89
			c0.77-0.71,1.36-0.48,1.87,0.18c0.6,0.81,1.23,1.64,1.91,2.55c1.35-0.5,2.79-1.04,4.27-1.58c-0.8-2.72-2.39-4.4-4.14-5.76
			c0.39-1.79,0.72-3.35,1.13-5.23c0.12,0.46,0.26,0.72,0.24,0.97c-0.07,0.64-0.28,1.27-0.31,1.9c-0.11,2.1,1.03,3.78,2.5,4.24
			c1.38,0.41,3.23-0.31,4.25-1.76c0.41-0.58,0.66-1.29,1.01-1.99c0.29,0.12,0.61,0.25,1.07,0.44c-2.37,5.71-4.71,11.37-7.06,17.04
			c1.53,0.63,2.91,1.21,4.39,1.82c2.23-5.78,4.43-11.47,6.56-16.99c2.27,1.04,4.62,1.78,6.96,2.49
			C199.04,422.79,201.36,423.53,203.68,424.27z M184.81,412.04c0.27-0.62,0.52-1.2,0.78-1.78c1.02-2.42,0.51-4.24-1.51-5.05
			c-0.96-0.34-1.95-0.62-2.89-1.03c-0.32-0.15-0.49-0.63-0.73-0.96c0.32-0.26,0.63-0.66,0.97-0.75c3.35-0.82,7.63,2.34,7.6,6.37
			c-0.01,1.62-0.34,2.69-1.44,4.37C186.68,412.82,185.82,412.46,184.81,412.04z M236.45,436.72c-0.21,2.26-0.4,4.31-0.59,6.36
			c-2.14-1.41-4.27-2.82-6.47-4.27C231.65,438.14,233.99,437.45,236.45,436.72z M200.19,436.18c-1.82-1.76-3.61-3.49-5.49-5.31
			c2.31-0.27,4.69-0.55,7.3-0.86C201.36,432.2,200.78,434.18,200.19,436.18z M157.1,407.98c-0.94-0.41-1.41-0.97-1.27-2.17
			c0.14-1.22-0.03-2.44-0.05-3.7c1.14,0.72,2.31,1.46,3.59,2.27C158.59,405.61,157.86,406.77,157.1,407.98z"/>
		<path class="st2" d="M427.98,348.04c-6.02-3.26-11.94-6.48-17.87-9.69c0.98-1.77,1.94-3.51,2.91-5.27
			c0.82-1.83,1.64-3.66,2.49-5.53c0.84,2.66,2.39,4.5,5.17,5.14c1.9,0.44,3.3-0.31,4.43-1.75c-0.73-1.19-1.45-2.37-2.2-3.61
			c-0.22,0.22-0.37,0.36-0.51,0.51c-0.95,0.89-1.73,0.69-2.23-0.53c-0.5-1.22,0.06-2.26,1.54-2.85c2.01-0.8,4.69-0.24,6.06,1.35
			c1.54,1.79,1.57,4.41,0.06,6.31c-1.99,2.5-4.8,3.07-7.9,2.72c-1.15-0.13-2.29-0.43-3.45-0.67c-0.46,1.38-0.89,2.7-1.32,3.99
			c3.17,1.42,6.63,1.81,9.8,1.14c3.11-0.69,5.73-2.52,7.43-5.2c2.09-3.32,1.96-6.64,0.6-9.19c-1.42-2.58-4.12-4.45-6.77-5.07
			c-2.65-0.62-5.02-0.23-7.6,0.68c0.84-1.7,1.29-3.36,1.89-5.03c2.8,1.83,5.71,2.49,8.86,2.1c0.76-0.1,1.54-0.09,2.32-0.05
			c1.63,0.09,2.43,0.7,2.94,2.22c0.11,0.33,0.21,0.67,0.32,1.01c1.67,0.04,3.25,0.07,4.84,0.11c-0.23-5.16-4.79-8.64-9.76-8.08
			c-0.91,0.1-1.84,0.34-2.71,0.21c-1.38-0.21-2.8-0.54-4.07-1.1c-1.13-0.5-1.17-3.17-0.14-3.64c0.17,0.26,0.35,0.53,0.55,0.84
			c1.52-0.43,2.98-0.84,4.28-1.2c0.01-1.28,0.05-2.38-0.07-3.52l0.44-0.01c1.32,2.06,2.29,4.06,3.45,6.21
			c1.96-0.43,3.83-0.85,5.68-1.25c-0.22-4.47,0.92-6.02,4.32-8.1c0.57-0.36,1.22-0.6,1.81-0.95c0.29-0.17,0.68-0.39,0.76-0.67
			c0.42-1.44,0.75-2.91,1.14-4.48c-6.05-1.3-11.91-2.56-17.83-3.84c0.1-0.64,0.18-1.18,0.27-1.76c-1.62-0.33-3.17-0.65-4.71-0.96
			c-3.76,17.97-10.34,35.24-19.52,51.16c0.87,0.5,1.65,0.95,2.64,1.52c-0.47,0.18-0.73,0.28-0.99,0.38
			c-3.04,1.06-5.1,2.91-6.15,5.79c-0.81,2.33-0.86,4.77,0.46,7.33c1.46,2.85,4.45,3.28,6.1,0.84c0.26-0.38,0.46-0.82,0.81-1.11
			c0.25-0.21,0.69-0.2,1.05-0.29c0.1,0.31,0.3,0.62,0.29,0.92c-0.02,1.06-0.1,2.12-0.18,3.28c1.69,0.06,3.25,0.12,4.85,0.18
			c0.35-4.55,0.68-8.79,0.49-13.37c1.99,1.15,3.8,2.18,5.69,3.28c-1.46,1.16-1.38,2.68-1.22,4.31c0.08,1.17,0.08,2.37-0.19,3.5
			c-0.54,2.24-1.5,2.75-3.88,2.3c-0.46,1.33-0.93,2.68-1.39,4c5.75,3.02,10.32-2.19,10.07-6.52c-0.08-0.94-0.22-1.93-0.11-2.85
			c0.2-1.79,1.2-2.22,2.79-1.37c0.28,0.14,0.56,0.27,0.87,0.42C426.43,350.86,427.17,349.5,427.98,348.04z M426.49,295.62
			c3.56,0.86,7.05,1.7,10.51,2.54c-1.34,1.59-2.68,3.17-3.91,4.63c-0.73-1.06-1.63-2.22-2.39-3.43c-0.42-0.67-0.87-0.96-1.64-0.76
			c-1.16,0.29-2.31,0.58-3.54,0.89C425.84,298.23,426.16,296.95,426.49,295.62z M407.95,345.56c0.09,1.41,0.05,2.6,0,3.95
			c-2.07-0.51-3.62,0.02-4.85,1.28C403.91,348.44,405,346.4,407.95,345.56z"/>
		<path class="st2" d="M67.13,298.81c0.16,2.47-0.46,4.89-1.66,7.22c-0.18,0.35-0.43,0.79-0.36,1.12c0.33,1.7,0.83,3.35,1.47,5.07
			c3.86-1.21,7.56-2.36,11.63-3.63c-0.37,1.38-0.54,2.56-1.01,3.64c-0.21,0.48-0.96,0.94-1.54,1.08c-0.31,0.07-0.79-0.57-1.4-1.07
			c-1.26,0.1-2.86,0.23-4.45,0.35c0.28,4.75,4.54,6.4,8.09,4.96c1.65-0.65,2.79-1.76,3.63-3.18c1.2-2.05,1.52-4.17,1.57-6.33
			c0.01-0.42,0.33-0.85,0.51-1.28l0.39,0.1l3.96,11.46c1.53,3.74,3.26,7.41,4.88,11.12c-1.24,0.59-2.39,1.13-3.7,1.75
			c0.42-1.56,0.25-2.76-0.73-3.84c-0.42-0.46-0.65-1.21-0.63-1.85c0.07-2.46-1.32-4.4-3.24-5.56c-1.85-1.18-4.41-1.52-6.93-0.49
			c-3.74,1.52-6.28,6.19-4.76,9.82c0.84,2.17,2.34,3.85,4.84,4.21c0.81,0.12,1.87,0.17,2.09-0.98c0.23-1.24,0.27-2.5,0.39-3.74
			c-2.3-0.05-3.08-0.83-2.64-2.57c0.14-0.58,0.43-1.17,0.8-1.65c0.73-0.93,1.73-1.34,2.93-0.93c1.23,0.42,1.78,1.24,1.49,2.48
			c-0.24,0.95-0.49,1.91-0.74,2.87l0.4-0.21c0.6,0.86,1.61,1.65,1.7,2.58c0.13,1.33-0.67,2.63-2.14,3.33
			c-1.83,0.86-3.65,1.72-5.51,2.6c0.71,1.52,1.24,2.93,2.04,4.39c5.46-2.74,10.85-5.45,16.23-8.16c0.48,0.86,0.88,1.59,1.3,2.35
			c-3.18,0.84-5.62,2.51-7.41,5.07c-0.44,0.62-0.96,1.21-1.51,1.76c-1.25,1.26-2.25,1.44-3.84,0.71c-0.27-0.12-0.55-0.24-0.84-0.37
			c-1.14,1.21-2.23,2.36-3.32,3.52c4.1,3.27,9.64,2.21,12.56-1.86c0.51-0.7,0.91-1.53,1.57-2.05c1.12-0.91,2.36-1.73,3.66-2.36
			c0.46-0.22,1.49,0.02,1.81,0.4c0.69,0.81,1.1,1.85,1.69,2.93c-5.34,3.14-10.54,6.19-15.72,9.23c0.8,1.45,1.5,2.78,2.43,4.1
			c5.18-3.22,10.28-6.38,15.41-9.56c0.76,1.14,1.46,2.19,2.24,3.35c-4.05,0.47-7.66,1.71-10.33,4.85
			c-2.71,3.15-3.12,7.76-1.02,10.62c1.35-0.76,2.71-1.52,4.04-2.27c-0.64-4.27,0-5.8,2.85-7.37c2.94-1.6,6.83-1.74,8.5-0.3
			c1.27-0.9,2.53-1.8,3.83-2.72c-13.67-19.5-23.36-41.67-28.28-64.89c-1.64,0.34-3.2,0.65-4.88,1c1.09,4.35,2.16,8.61,3.23,12.86
			l-0.36,0.2c-2.85-3.46-5.74-7.05-8.7-10.83c-2.72,1.19-5.35,2.34-7.7,3.37C66.4,296.54,67.05,297.65,67.13,298.81z M71.78,302.07
			c0.26-1.18,0.37-2.37,0.58-3.8c1.57,1.97,3.06,3.85,4.65,5.85c-2.15,0.61-4.15,1.18-6.31,1.8
			C71.09,304.5,71.51,303.29,71.78,302.07z"/>
		<path class="st2" d="M115.53,388.82c0.28,1.17,0.34,2.42,0.53,3.64c0.06,0.4,0.06,0.9,0.29,1.16c1.21,1.3,2.6,2.42,3.98,3.69
			c4.21-4.53,8.3-8.93,12.42-13.36c0.52,0.39,0.96,0.72,1.41,1.05c1.12-1.23,2.19-2.4,3.24-3.55l-4.57-4.12l-4.2-4.47
			c-2.76-3-5.72-5.82-8.12-9.11c-0.55,0.4-1.02,0.74-1.59,1.16c-0.12-2.68-0.67-4.88-2.75-6.39c-2.55-1.75-6.39-1.87-9.51,0.01
			c-2.96,1.78-4.81,5.32-3.95,8.22c0.88,3.23,4.97,4.79,7.93,2.95c1.23-0.75,1.87-1.89,2.18-3.19c0.28-1.14-0.77-1.33-1.35-1.85
			c-0.45-0.4-0.94-0.76-1.47-1.19c-0.35,0.78-0.58,1.5-0.99,2.13c-0.19,0.29-0.77,0.55-1.12,0.53c-0.27-0.02-0.59-0.47-0.65-0.79
			c-0.22-1.06,1.03-2.77,2.34-3.38c1.46-0.68,2.79-0.52,3.61,0.42c1.08,1.22,1.27,2.72,0.79,4.38c-0.55,1.91-1.45,3.64-3.17,4.99
			c-2.75,2.16-5.41,4.44-8.16,6.71c1.04,1.29,1.97,2.45,3.01,3.75c4.61-4,9.16-7.95,13.68-11.88c3.44,3.65,6.78,7.19,10.11,10.73
			l-0.18,0.29c-4.19-1.62-8.46-3.34-12.92-5.19c-1.76,2.37-3.48,4.68-5.28,7.11C113.85,384.17,114.92,386.29,115.53,388.82z
			 M120.87,389.86c-0.77-2.47-1.52-4.88-2.3-7.38c2.11,0.87,4.35,1.79,6.78,2.79C123.75,386.91,122.32,388.38,120.87,389.86z"/>
		<path class="st2" d="M266.55,442.08c-1.32-0.89-2.55-1.71-3.91-2.63c1.27-1.87,2.44-3.57,4.51-4.16c1.08-0.31,1.42-1.4,1.36-2.45
			c-0.03-0.58-0.61-1.56-1.01-1.65c-0.71-0.14-1.5,0.21-2.22,0.49c-0.22,0.08-0.48,0.66-0.41,0.9c0.42,1.4-0.5,1.72-1.26,2.21
			l-2.22,1.42c-1.56-2.36-1.21-5.66,0.61-7.9c2.08-2.58,5.54-3.01,8.05-1.33c2.05,1.32,3.94,5.18,2.3,9.32
			c0.56,0.82,1.25,1.54,1.62,2.41c1.2,2.79,1.29,5.59-0.63,8.13c-2.02,2.78-4.86,3.37-8.04,2.67c-3.04-0.7-5.35-2.49-7.12-4.97
			c-3.32-4.67-4.62-10.06-5.3-16.01c1.41-0.14,2.76-0.55,4.04-0.79c0.65,2.69,1.09,5.35,2.01,7.79c0.9,2.39,2.14,4.69,3.62,6.77
			c1.26,1.78,3.19,2.72,5.43,2.48c1.48-0.16,2.46-1.39,2.14-2.93c-0.12-0.58-0.63-1.39-1.07-1.51c-0.53-0.15-1.22,0.26-1.77,0.57
			C266.98,441.1,266.85,441.59,266.55,442.08z"/>
		<path class="st2" d="M328.48,407.46c-0.89-0.64-1.72-1.24-2.66-1.93c1.38-4.09,2.37-8.17,4.53-11.42
			c1.72,1.08,3.34,2.09,5.09,3.18C331.73,399.39,330.94,403.94,328.48,407.46z"/>
		<path class="st2" d="M113.07,392.61c-1.47,1.46-3.64,1.45-5-0.02c-1.36-1.48-1.24-3.7,0.27-5.04c1.49-1.32,3.56-1.3,4.91,0.05
			C114.6,388.94,114.52,391.15,113.07,392.61z"/>
		<path class="st2" d="M402.59,383.87c1.58,1.35,1.74,3.48,0.37,4.96c-1.35,1.46-3.62,1.51-5.08,0.13c-1.47-1.4-1.58-3.58-0.25-4.97
			C398.94,382.62,401.06,382.57,402.59,383.87z"/>
		<path class="st2" d="M444.09,302.95c2,0.53,3.14,2.43,2.58,4.34c-0.58,1.97-2.39,2.9-4.39,2.26c-1.93-0.61-2.99-2.4-2.52-4.24
			C440.22,303.43,442.08,302.42,444.09,302.95z"/>
		<path class="st2" d="M231.5,450.18c-0.24,2.06-1.96,3.4-3.93,3.08c-2-0.33-3.24-2.09-2.89-4.12c0.34-1.95,2-3.24,3.87-3.01
			C230.46,446.38,231.74,448.13,231.5,450.18z"/>
	</g>
</g>
<path class="st3" d="M105.09,253.73c0-82.09,66.55-148.64,148.64-148.64s148.64,66.55,148.64,148.64c0,11.9-1.44,23.46-4.08,34.56
	l69.2-62.93c-13.9-105.69-104.27-187.3-213.76-187.3c-109.49,0-199.86,81.61-213.76,187.3l69.2,62.93
	C106.53,277.2,105.09,265.64,105.09,253.73z"/>
<g>
	<g>
		<path class="st4" d="M198.35,95.15c4.24-3.7,8.89-3.97,13.43-1.24c0.84,0.5,1.6,1.13,2.43,1.62c0.46,0.27,1.07,0.59,1.54,0.5
			c2.05-0.37,4.06-0.88,6.33-1.4c-1.65-8.35-3.26-16.48-4.86-24.59c10.28-1.91,20.42-3.22,30.61-3.41c0.06,1.88,0.11,3.62,0.18,5.65
			c-2.44-1.65-4.89-1.63-7.43-0.68c-0.65,0.24-1.66-0.03-2.42-0.28c-4.44-1.29-8.45-0.01-11.61,2.9c-3.21,2.99-3.99,6.53-2.29,10.39
			c2,4.52,5.54,7.12,10.34,7.73c3.72,0.31,7.81-1.2,9.6-3.92c1.28-1.98,1.02-3.07-1.12-4.03l-4.16-1.81
			c-1.38,3.09-3.09,3.86-5.69,2.15c-0.59-0.38-1.14-0.88-1.57-1.42c-1.07-1.36-1.18-2.81,0.04-4.22c1.21-1.4,2.76-1.78,4.44-1.04
			c1.38,0.57,2.68,1.42,4.01,2.24c1.54-1.09,3.04-2.51,5.16-1.47c2.22,1.09,3.31,2.81,3.23,5.27c-0.08,2.46,0.12,4.93,0.19,7.44
			c2.39-0.05,4.58-0.37,6.93-0.15c0.1-8.39,0.19-16.63,0.29-24.94c2.48,0.11,4.76,0.21,7.34,0.32c-3.63,4.84-4.99,9.88-3.26,15.39
			c0.89,2.85,2.32,5.09,4.26,6.74c1.93,1.66,4.37,2.63,7.27,3.58c0.52-2.23,1.01-4.37,1.53-6.61c-0.65-0.27-1.31-0.38-1.71-0.75
			c-1.37-1.32-3.21-2.37-3.99-3.81c-2.11-3.85,1.12-12.18,5.81-13.75c0.78-0.28,1.88,0.06,2.83,0.11l0.06,0.37l-1.53,0.59
			c1.43,2.19,2.67,4.09,3.77,5.77c2.17-0.28,4.09-0.52,6.01-0.77l0.15,0.59c-3.15,1.95-6.2,3.91-9.23,5.95
			c0.64,1.33,1.22,2.55,1.81,3.77c0.58,1.21,1.15,2.42,1.71,3.6c3.67-0.66,6.13-0.36,7.97,0.78c1.86,1.05,3.15,2.66,4.55,4.62
			c0.56,0.78,0.91,1.68,1.41,2.48c0.25,0.4,0.57,0.93,0.96,1.03c2.09,0.47,4.16,1.03,6.41,1.82c1.59-5.33,3.11-10.46,4.77-16.02
			c1.54,1.54,2.9,2.64,3.83,3.96c0.53,0.75,0.7,1.99,0.41,2.8c-0.16,0.45-1.57,0.49-2.75,0.82c-0.84,1.31-1.91,2.97-2.98,4.64
			c-0.1,0.15-0.12,0.35-0.17,0.52c3.55,2.23,6.9,2.12,9.91,0.12c4.22-2.68,5.39-8.63,1.59-13.09c-1.92-2.24-4.28-3.95-6.91-5.35
			c-2.63-1.43-5.52-2.55-8.63-3.21c-1.14,4.52-2.22,8.85-3.29,13.09c-2.78-1.99-5.42-3.88-8.13-5.82c1.73-0.96,3.48-2.05,5.4-2.87
			c1.43-0.61,1.77-1.45,1.24-2.72c-0.65-1.55-1.36-3.09-2.1-4.69c10.51,2.14,20.84,5.28,30.81,9.27l0.07,0.32
			c-0.55,0.03-1.1,0.05-1.68,0.08c0.82,2.5,1.53,4.66,2.17,6.59c2.15,0.3,4.05,0.56,5.95,0.82l-0.02,0.63
			c-3.55,1.06-7,2.16-10.43,3.33c0.47,2.29,0.95,4.44,1.21,6.6c0.15,1.28,0.69,1.65,1.99,1.73c3.81,0.09,6.43,2.4,7.95,5.67
			c0.75,1.64,1.17,3.4,1.74,5.07c0.17,0.51,0.32,1.2,0.71,1.42c1.89,1.01,3.72,2.11,5.7,3.42c4.46-7.26,8.8-14.33,13.11-21.36
			c1.68,1.08,3.14,2.01,4.75,3.04c-4.6,7.01-9.12,13.9-13.66,20.83c1.94,1.32,3.91,2.3,5.71,3.82c4.9-6.83,9.71-13.52,14.52-20.23
			c3.59,2.75,7.13,5.47,10.66,8.17c3.29,2.98,6.57,5.94,9.84,8.91l-0.22,0.48l-10.91-4.5c-3.59-1.44-7.46-2.44-11.1-3.61
			c-1.66,3.82-3.3,7.45-5.08,11.22c2.15,0.4,3.78,1.33,5.04,2.58c1.19,1.34,1.96,3.04,2.59,4.8c0.56,1.59,0.79,3.26,1.19,4.86
			c0.15,0.6,0.22,1.34,0.62,1.73c1.83,1.66,3.57,3.42,5.38,5.45c6.1-5.84,12.09-11.58,18.13-17.36c0.91,0.87,1.63,1.55,2.31,2.19
			c1.71-1.58,3.28-3.03,4.85-4.49c-28.2-30.6-66.44-51.79-107.42-59.26c-40.94-7.28-84.12-1.39-121.38,17.19
			c1.02,2.04,1.97,3.96,3,6.03c1.46-0.73,2.75-1.52,4.2-2.12c0.35,9.44,1.39,12.06,4.5,15.15c4.1,3.94,10.25,5.76,15.09,3.66
			c-0.58-2.11-1.17-4.24-1.74-6.3c-5.68,0.35-8-0.73-9.58-4.64c-1.27-3.15-0.86-6.36,0.33-9.7c0.58-1.64,1.35-2.81,3.42-3.08
			c-0.21,0.53-0.41,1.04-0.61,1.56c2.13,1.12,4.03,2.05,5.73,3.09c1.84-1.21,3.4-2.23,4.95-3.25l0.45,0.47
			c-1.89,3.14-3.77,6.01-5.45,9.39C193.9,91.63,196.11,93.39,198.35,95.15z M209.29,71.78c1.19,4.9,2.37,9.73,3.53,14.5
			c-1.62-0.29-3.23-0.57-4.81-0.85c-1.58-0.21-3.1-0.3-4.6-0.45c0.9-1.66,1.86-3.69,3.1-5.49c0.69-0.96,0.83-1.7-0.09-2.5
			c-1.36-1.21-2.69-2.26-4.18-3.43C204.45,72.75,206.83,72.38,209.29,71.78z M331.01,95.29c1.95-0.49,4.03-1.08,6.2-1.46
			c1.21-0.21,1.78-0.74,1.65-1.88c-0.24-1.76-0.48-3.51-0.73-5.32c1.93,1.01,4.05,2.13,6.32,3.32c-2.39,4.3-4.8,8.64-7.17,12.91
			C335.18,100.32,333.14,97.86,331.01,95.29z M371.65,130.84c-1.63-3.59-3.24-7.13-4.89-10.76c3.45,1.39,7.1,2.86,10.98,4.42
			C375.52,126.81,373.56,128.85,371.65,130.84z"/>
		<path class="st4" d="M91.59,159.72c0.89-1.8,1.93-3.2,3.01-4.89c7.13,4.44,14.17,8.82,21.19,13.19c1.3-1.98,2.46-3.77,3.76-5.75
			c-6.96-4.75-13.8-9.43-20.67-14.12c0.97-1.45,1.72-2.71,2.61-3.9c0.72,1.03,4.15,1.75,7.01,1.67c1.07-1.37,2.05-2.63,3.35-4.29
			c-1.13,8.57,0.29,12,4.29,13.3c3.75,1.17,9.39-0.8,11.74-4.21c1.65-2.55,1.8-5.34-0.02-7.87c-1.94,0.46-3.91,0.97-5.91,1.7
			c1.14,1.44,0.46,2.49-0.57,3.16c-0.67,0.44-2.25,0.76-2.4,0.5c-0.51-0.88-1.02-2.24-0.66-3.1c0.75-1.74,1.73-3.64,3.17-4.88
			c3.43-2.81,6.29-2.6,9.27,0.16c1.2,1.11,2.4,2.21,3.63,3.35c1.63-1.77,3.08-3.34,4.69-5.07c-5.92-5.94-11.78-11.82-17.65-17.71
			c0.8-0.97,1.53-1.64,2.24-2.41c-1.58-1.64-3.06-3.17-4.7-4.88c-2.57,2.17-4.68,4.79-7.01,7.2c-2.26,2.48-4.61,4.88-6.79,7.44
			c-2.08,2.65-4.16,5.32-6.26,8l-3.15,4.05c-0.99,1.4-1.9,2.87-2.86,4.31c-1.44-1.55-3.33-2.55-3.74-4.25
			c-1.33-4.64,4.24-12.95,8.44-14.92c0.02,0.63,0.05,1.25,0.07,1.99c1.73,0.01,3.37,0.02,5.37,0.04c-0.42-4.98,2.77-6.05,6.41-5.87
			c0.44-2.78,0.83-5.2,1.24-7.78c-1.32,0.07-2.48,0.13-4.23,0.22c0.88-1.47,1.69-2.89,2.53-4.27c0.87-1.43-7.53-2.05-7.93-0.78
			c-0.62,1.96-1.19,3.87-1.69,5.77c-0.3,1.16-0.69,1.79-1.9,2.36c-6.47,3.16-11.02,8.81-14.2,15.4c-3.44,8.64-2.16,13.94,3.89,17.8
			c0.46,0.29,0.87,0.65,1.42,1.07c-12.56,20.17-21.3,42.49-25.75,65.7c2.3,0.44,4.44,0.85,6.69,1.27c0.76-3.24,1.49-6.31,2.22-9.39
			c0.79-3.06,1.29-6.19,2.59-9.7c1.14,4.73,3.98,6.99,7.82,7.05c2.62,0.03,4.55-1.55,6-4.07c-1.1-1.71-2.18-3.39-3.33-5.18
			c-0.96,1.21-1.63,3.08-3.26,1.61c-1.24-1.12-1.11-3.47,0.21-4.93c0.46-0.51,1.01-0.95,1.57-1.28c2.82-1.65,6.31-0.95,8.23,1.37
			c2.16,2.63,2.46,6.42,0.58,9.49c-2.75,4.23-6.34,6.1-10.93,6.74c-1.5,0.22-3.02,0.2-4.61,0.31c-0.23,2.48-0.45,4.84-0.67,7.16
			c7.73,1.27,17.35-3.46,21.28-9.68c2.64-3.72,3.49-7.63,2.8-11.42c-0.62-3.74-2.46-7.25-6.05-10.04c-0.2-0.15-0.36-0.36-0.54-0.54
			c0.39-1.45,1.17-1.4,2.21-0.93c3.07,1.34,6.14,2.68,9.23,4.03c0.97-2.19,1.75-4.18,2.75-6.32c-7.56-3.68-15.01-7.31-22.46-10.93
			c0.95-1.77,1.77-3.3,2.72-5.06c7.44,3.91,14.78,7.77,22.16,11.65c1.1-2.05,2.09-3.9,3.25-6.06
			C105.92,168.05,98.75,163.88,91.59,159.72z M117.53,134.53c-0.42,0.23-0.99,0.27-1.47,0.26c-2.54-0.1-4.88,0-7.11,0.04
			c1.76-2.45,4.34-5.07,6.94-7.89l5.62,5.17C120.15,132.95,118.87,133.79,117.53,134.53z M81.84,179.22
			c1.78,0.77,3.55,1.54,5.44,2.36c-0.51,1.58-1.27,2.54-3.02,2.82c-1.77,0.28-3.53,1.11-5.4,1.77
			C79.83,183.89,80.8,181.64,81.84,179.22z"/>
		<path class="st4" d="M414.78,212.99c-0.69,0.39-1.38,1.05-2.08,1.07c-0.65,0.02-1.49-0.49-1.93-1.02
			c-2.4-3.06-1.24-7.49,2.64-8.52c3.73-0.99,9.06,1.82,10.24,5.83c1.72,5.19,6.18,7.88,11.13,6.64c0.77-0.23,1.53-0.46,2.31-0.7
			c0.29,0.8,0.53,1.46,0.76,2.08c2.25-0.43,4.34-0.83,6.6-1.26c-0.5-2.11-0.96-4.09-1.44-6.1c4.48,0.2,7.27-2.67,7.03-8.04
			c-0.13-2.4-0.96-4.94-2.08-7.18c-1.37-2.98-1.49-4.43-0.01-6.84c0.28-0.46,0.57-0.92,0.96-1.56c-1.71-2.1-3.37-4.14-5.03-6.18
			c-4.37,4.96-5.08,10.9-2.03,17.41c0.56,1.1,0.97,2.28,1.18,3.48c0.08,0.46-0.42,1.02-0.66,1.53c-0.45-0.32-0.97-0.56-1.31-1
			c-0.24-0.3-0.25-0.86-0.35-1.3c-4.09-13.4-8.93-26.66-15.78-38.93c-0.29-0.59-0.57-1.18-0.87-1.79c4.19-1.05,6.17-4.42,4.68-9.28
			c-0.71-2.37-2.58-4.47-4.17-6.46c-2.22-2.68-2.72-4.08-1.85-7.04c0.13-0.46,0.26-0.91,0.45-1.57c-2.14-1.66-4.44-3.06-6.7-4.44
			c-2.61,6.02-1.84,11.71,2.83,17.22c0.65,0.76,1.39,1.5,1.82,2.37c0.33,0.66,0.23,1.49,0.33,2.24c-0.68-0.34-1.59-0.51-1.98-1.05
			c-1.44-1.97-2.71-4.05-4.04-6.1l-3.3-5.04c-1.13-1.66-2.44-3.19-3.65-4.79c-1.93,1.46-3.67,2.78-5.42,4.1
			c0.64,0.9,1.18,1.67,2.05,2.91c-3.21,1.86-6.33,3.65-9.38,5.55c-0.76,0.48-1.48,1.16-1.92,1.93c-0.63,1.09-1,2.33-1.47,3.5
			c-1.21,2.87-1.54,5.79-0.2,8.58c0.95,1.99,2.39,3.74,3.67,5.7c-0.2,0.12-0.63,0.53-1.1,0.81c0,0-0.19-1.86-2.52-2.67
			c-1-0.4-2.15-0.41-3.17-0.72c-1.97-0.6-2.32-1.62-1.26-3.45c0.44-0.77,0.98-1.48,1.58-2.37c-0.64-0.72-1.28-1.44-1.95-2.2
			c-0.74-0.7-1.52-1.43-2.38-2.24c-1.41,2.21-2.84,3.99-3.84,5.95c-2.1,4.06-0.12,8.16,4.4,8.75c0.75,0.1,1.52,0.2,2.22,0.47
			c1.38,0.54,0.91,1.87-0.32,2.71c-0.71,0.49,0.5-0.21-0.25,0.24c1.08,2,2.05,3.81,3.07,5.7c4.22-2.28,6.31-3.39,10.39-5.6
			c2.12-1.16,4.22-2.09,6.74-2.39c6.33-0.65,10.43-7.06,5.5-13.96c-2.65-3.26-6.13-4.45-8.5-2.61c-0.5,0.39-0.97,1.27-0.89,1.89
			c0.2,1.57,0.72,3.12,1.01,4.3c0.98-0.06,1.79-0.32,2.45-0.06c0.48,0.16,1.11,1.29,0.93,1.6c-0.35,0.68-1.02,1.33-1.71,1.59
			c-2.23,0.81-5.43-0.38-7.02-2.55c-1.48-2.05-1.59-4.05,0.26-5.47c3.16-2.42,6.58-4.48,9.87-6.68c2.11,3.37,4.48,6.54,6.34,10.03
			c1.87,3.48,3.75,6.96,5.64,10.49c-7.53,3.74-14.92,7.42-22.32,11.1c1.2,1.98,1.83,4.04,2.82,6.18c7.68-3.43,15.26-6.8,22.76-10.15
			c1.82,4.47,3.97,8.54,5.23,12.94l-0.37,0.55c-1.2-0.75-2.75-1.19-3.5-2.28c-0.94-1.34-1.44-3.15-2.21-5
			c-0.79,0.03-1.95,0.15-3.1,0.14c-3.4-0.03-3.65,0.88-3.05,4.45c0.15,1.1,0.86,2.17,1.33,3.21c1.51,2.96,3.97,4.74,6.99,5.97
			c-0.29,0.87-0.53,1.6-0.78,2.35c-6.02-3.7-7.87-4.25-11.81-3.66c-3.08,0.48-6.07,1.28-8.09,4.15c-1.97,2.79-2.72,6.23-2.3,9.46
			c0.35,3.26,1.44,6.46,3.96,8.7c2.83,2.58,6.23,3.19,9.8,1.93c3.03-1.07,4.56-3.48,4.74-6.89c0.16-3.84-1.75-7.12-4.85-7.4
			c-2.12-0.22-2.78,0.33-3.06,2.32c-0.19,1.03-0.38,2.05-0.46,2.52C413.88,212.01,414.33,212.5,414.78,212.99z M434.76,206.36
			c0.1,0.8-0.44,1.97-1.03,2.43c-0.53,0.41-1.74,0.42-2.23-0.01c-0.49-0.43-0.79-1.73-0.61-2.46c0.53-2.03,1.29-3.98,1.76-5.95
			l0.61,0.11C433.97,202.38,434.5,204.37,434.76,206.36z"/>
		<path class="st4" d="M164.94,106.25c-2.31,0-4.55-0.01-7.02-0.01c0.34-3.05,0.89-6.02,3.29-8.38c1.29-1.33,1.81-2.56,1.4-3.93
			c-0.25-0.85-1.12-2-1.9-2.06c-1.09-0.12-2.52,0.69-3.26,1.5c-0.63,0.73-0.89,2.27-0.52,3.03c0.46,0.96,0.48,1.54-0.16,2.46
			c-1.05,1.49-1.96,3.04-2.89,4.54c-3.72-1.09-5.86-5.06-4.71-9.42c1.33-5.02,6.96-9.78,12.39-9.46c5.61,0.13,8.72,4.34,8.73,10.65
			c4.97,1.61,7.61,6.02,7.12,10.74c-0.51,4.92-4.33,8.85-9.41,10.3c-2.57,0.63-5.47,0.85-8.18,0.5c-7.41-0.9-19.57-7.29-24.37-13.48
			c1.79-1.75,3.59-3.52,5.45-5.34c2.27,1.84,4.22,3.88,6.58,5.33c3.46,2.14,7.1,4.41,10.84,6.1c3.3,1.49,6.87,1.52,10.14-0.77
			c1.83-1.23,2.63-3.18,1.46-4.94c-0.49-0.72-1.7-1.55-2.43-1.41c-0.9,0.14-1.67,1.26-2.26,2.17
			C164.92,104.81,165.03,105.51,164.94,106.25z"/>
		<path class="st4" d="M328.31,110.49c-1.29,2.54-4.08,3.54-6.45,2.31c-2.36-1.28-3.48-3.81-2.33-6.47c1.1-2.55,4.06-3.87,6.61-2.45
			C328.62,105.21,329.55,108.05,328.31,110.49z"/>
		<path class="st4" d="M202.06,100.73c-0.9-2.69,0.54-5.37,3.3-6.16c2.74-0.77,5.15,0.54,5.89,3.29c0.73,2.74-0.62,5.46-3.17,6.22
			C205.5,104.86,202.97,103.45,202.06,100.73z"/>
		<path class="st4" d="M360.67,134.89c-1.92,2.13-4.83,2.38-6.77,0.57c-1.96-1.77-2.32-4.58-0.53-6.81c1.72-2.15,4.94-2.61,7-0.66
			C362.39,129.92,362.52,132.84,360.67,134.89z"/>
	</g>
</g>
<g>
	
		<ellipse transform="matrix(0.2185 -0.9758 0.9758 0.2185 35.479 378.0088)" class="st5" cx="253.73" cy="166.85" rx="42.24" ry="42.24"/>
	<path class="st6" d="M292.02,166.86c0,21.32-17.14,38.61-38.28,38.61c-21.14,0-38.28-17.29-38.28-38.61
		c0-21.33,17.14-38.61,38.28-38.61C274.88,128.24,292.02,145.53,292.02,166.86z"/>
	<g>
		<g id="g3879" transform="matrix(0.06171364,0,0,0.06171364,19.920107,9.6938707)">
			<g id="g3062" transform="translate(-10.255616,-165.11542)">
				<g id="g3047" transform="translate(-314,0)">
					<g id="g3041">
						<path id="path3037" class="st5" d="M3952.17,2900.96c294.73-188.5,442.12-347.73,537.64-486.42
							c-32.93,164.02-211.94,339.88-509.27,525.34c-8.03,5.24-15.46,11.25-22.66,17.57c-1.92,1.69-9.98,4.33-12.42,5.11
							c-23.23,7.37-51.03,46.38-93.57,52.38c-2.01,25.79-25.49,40.22-42.88,40.22c-46.93,81.92-122.65-25.51-26.8-32.18
							c12.4-37.16,52.1-32.96,53.61-29.47c24.65-41.98,52.92-46.72,80.41-67.01L3952.17,2900.96z"/>
						<path id="rect3039" class="st5" d="M3925.43,2864.4l79.11,108.18c5.9,8.06,4.14,19.39-3.93,25.27l0,0
							c-8.06,5.9-19.38,4.16-25.28-3.92l-79.11-108.18c-5.9-8.06-4.15-19.39,3.92-25.27l0,0
							C3908.22,2854.58,3919.53,2856.34,3925.43,2864.4z"/>
						<path id="path3854" class="st5" d="M4273.66,2900.96c-294.73-188.5-442.13-347.73-537.64-486.42
							c32.93,164.02,211.94,339.88,509.27,525.34c8.03,5.24,15.46,11.25,22.66,17.57c1.91,1.69,9.98,4.33,12.42,5.11
							c23.23,7.37,51.03,46.38,93.57,52.38c2.01,25.79,25.49,40.22,42.88,40.22c46.93,81.92,122.65-25.51,26.8-32.18
							c-12.4-37.16-52.1-32.96-53.61-29.47c-24.66-41.98-52.92-46.72-80.41-67.01L4273.66,2900.96z"/>
						<path id="rect3856" class="st5" d="M4300.38,2864.4l-79.11,108.18c-5.89,8.06-4.14,19.39,3.93,25.27l0,0
							c8.06,5.9,19.38,4.16,25.28-3.92l79.11-108.18c5.9-8.06,4.15-19.39-3.92-25.27l0,0
							C4317.61,2854.58,4306.29,2856.34,4300.38,2864.4z"/>
					</g>
				</g>
				<path id="path3060" class="st5" d="M3637.69,2932.8c10.24,15.76-7.39,45.38-39.36,66.12c-31.97,20.76-66.19,24.79-76.43,9.02
					c-10.23-15.76,7.39-45.38,39.36-66.12C3593.24,2921.07,3627.46,2917.02,3637.69,2932.8L3637.69,2932.8z"/>
				<path id="path3858" class="st5" d="M3960.13,2932.8c-10.24,15.76,7.39,45.38,39.35,66.12c31.97,20.76,66.19,24.79,76.43,9.02
					c10.24-15.76-7.38-45.38-39.35-66.12C4004.58,2921.07,3970.36,2917.02,3960.13,2932.8L3960.13,2932.8z"/>
			</g>
		</g>
		<g>
			<path id="_125609632" class="st7" d="M253.7,153.77c-0.29-0.11-0.53-0.29-0.77-0.52c-0.15-0.14-0.82-0.38-0.1-2.06
				c1.12-2.66,3.58-6.74,6.26-8.82L253.7,153.77L253.7,153.77z"/>
			<path id="_125594880" class="st8" d="M253.7,153.77c0.59,0.32,1.51,0.95,2.67-1.36c1.28-2.59,2.76-5.94,2.69-9.99L253.7,153.77z"
				/>
			<path id="_116914736" class="st7" d="M254.11,153.54c-0.24-0.21-0.21,0-0.36-0.29c-0.09-0.18-0.77-1.22,0.46-2.56
				c1.97-2.13,6.05-5.37,9.27-6.43L254.11,153.54L254.11,153.54z"/>
			<path id="_125479936" class="st8" d="M254.11,153.54c0.44,0.5,1.19,1.44,3.49-0.69c2.13-1.96,4.89-5.08,5.85-8.56L254.11,153.54z
				"/>
			<path id="_125284296" class="st7" d="M254.6,154.53c-0.28,0.14-0.08,0.2-0.41,0.22c-0.21,0.02-1.42,0.26-2.19-1.4
				c-1.22-2.63-2.65-7.64-2.4-11.02L254.6,154.53L254.6,154.53z"/>
			<path id="_125284336" class="st8" d="M254.6,154.53c0.63-0.22,1.78-0.55,0.69-3.49c-1-2.71-2.82-6.46-5.68-8.67L254.6,154.53
				L254.6,154.53z"/>
			<path id="_129736672" class="st7" d="M253.97,153.61c-0.21,0.24-0.46,0.39-0.76,0.53c-0.19,0.09-0.64,0.63-1.96-0.63
				c-2.09-2.01-5.03-5.75-6.01-9L253.97,153.61L253.97,153.61z"/>
			<path id="_124035040" class="st8" d="M253.97,153.61c0.52-0.43,1.44-1.08-0.31-2.98c-1.96-2.13-4.56-4.7-8.38-6.09L253.97,153.61
				L253.97,153.61z"/>
			<path id="_100815240" class="st8" d="M252.2,152.09c-0.62-0.29-1.37-0.76-2.16-1.14c-1.53-0.74-5.79-2.1-8.94-2.28l11.27,5.22
				C252.15,153.13,252.23,152.4,252.2,152.09L252.2,152.09z"/>
			<path id="_24584688" class="st7" d="M254.3,155.77v-14.93c-1.79,2.9-2.25,8.27-2.12,11.15c0.05,0.95,0.04,1.49,0.19,1.92
				l-11.27-5.22c1.41,2.46,5.35,4.68,5.62,4.9c1.48,1.22,2.65,1.44,3.25,1.43c0.59-0.02,3.12-0.13,3.33-0.1
				c0.33,0.06,0.57,0.19,0.6,0.48c0.02,0.2,0,0.38,0,0.38L254.3,155.77L254.3,155.77z"/>
			<path id="_95478192" class="st8" d="M254.66,155.79c0,0,0.01-0.21,0.04-0.41c0.04-0.29,0.27-0.43,0.6-0.48
				c0.22-0.03,2.74,0.08,3.33,0.1c0.58,0.02,1.76-0.21,3.24-1.43c0.28-0.23,4.16-2.71,5.63-4.9l-11.28,5.22
				c0.15-0.43,0.15-0.96,0.19-1.92c0.13-2.88-0.33-8.25-2.12-11.15v14.93L254.66,155.79L254.66,155.79z"/>
			<path id="_101019448" class="st7" d="M256.4,152.09c0.61-0.29,1.36-0.76,2.15-1.14c1.53-0.74,5.79-2.1,8.95-2.28l-11.28,5.22
				C256.45,153.13,256.36,152.4,256.4,152.09L256.4,152.09z"/>
		</g>
	</g>
</g>
<g>
	<g>
		<path d="M281.54,330.08c-4.09-0.71-8.22-0.42-12.45-0.8c-4.74-0.43-10.05-2.03-10.05-7.7l-0.01-0.61
			c-0.02-0.61-0.03-1.21,0.03-1.81c0.04-0.45,0.09-0.76,0.06-1.03c-0.01,0-0.11-0.2-0.47-0.77c-1.1-1.73-0.42-3.44,0.2-4.63
			c-0.58-0.23-1.21-0.56-1.81-1.12c-1.6-1.48-1.59-3.37-1.58-4.27c0-0.67,0.01-1.14-0.01-1.51c-0.31-0.13-0.7-0.27-1.17-0.46
			c-0.68-0.26-2.73-1.08-3.54-3.11c-0.81-2.01,0.13-3.85,0.44-4.45c0.65-1.27,1.42-2.5,2.19-3.72l1.45-2.31
			c0.27-0.43,0.55-0.85,0.79-1.3c0.66-1.17,0.79-2.12,0.44-3.19c-1.39-4.15-1.72-8.73-1.01-14.01c1.01-7.69,6.52-13.82,12.95-17.71
			c5.38-3.25,11.62-4.69,17.68-6.08c9.01-2.07,17.23-6.77,22.39-14.55c4.78-7.22,7.13-15.89,8.17-24.41
			c0.13-1.08,0.08-2.54,0.17-3.62c0.03-0.36-0.11-0.43-0.11-0.43c-0.3,0-1.31,2.27-1.83,3.24c-7.18,13.24-13.33,27.1-27.93,33.52
			c-6.68,2.94-14.22,2.88-20.79,5.98c-8,3.78-13.57,10.39-17.58,18.14c-3.59,6.95-3.99,15.24-1.63,22.67
			c0.31,0.98,0.19,1.82-0.4,2.92c-0.21,0.39-0.44,0.77-0.66,1.15l-1.61,2.71c-0.85,1.42-1.61,2.71-2.26,4.06
			c-0.35,0.71-1.4,2.87-0.47,5.31c0.94,2.46,3.23,3.4,3.98,3.72l0.58,0.24c0.07,0.03,0.15,0.06,0.21,0.09c0,0.13,0,0.28,0,0.44v0.72
			c-0.01,0.98-0.03,3.28,1.82,5.07c0.42,0.41,0.88,0.75,1.43,1.04c-0.58,1.35-1,3.16,0.1,5c0.21,0.35,0.33,0.57,0.4,0.69
			c0,0.14-0.02,0.3-0.04,0.49c0,0-0.03,0.34-0.03,0.36c-0.13,1.53,0.11,2.45,0.83,3.79c2.46,4.54,7.36,7.33,12.4,7.89
			c6.48,0.71,12.7-1.01,18.98,1.4c13.74,5.27,21.41,18.81,25.79,32.12c0.56,0.62,0.75-0.28,0.68-1.33
			c-0.96-14.46-8.33-31.36-22.84-36.79C284.12,330.63,282.83,330.3,281.54,330.08z"/>
	</g>
	<path d="M329.98,351.14c-1.85-5.39-3.46-10.94-6.39-15.88c-3.49-5.89-8.51-11.18-14.6-14.54c-7.05-3.89-14.7-3.93-22.55-4.09
		c-0.94-0.02-3.2-0.26-4.29-0.54c-3.03-0.78-4.05-3.41-4.05-4.73l-0.01-0.47c-0.02-0.46-0.03-0.92,0.03-1.38
		c0.04-0.35,0.09-0.58,0.06-0.79c-0.01,0-0.12-0.16-0.48-0.59c-1.12-1.33-0.43-2.63,0.21-3.54c-0.59-0.18-1.24-0.43-1.85-0.85
		c-1.64-1.14-1.62-2.57-1.61-3.27c0-0.51,0.01-0.87-0.01-1.15c-0.32-0.1-0.71-0.21-1.2-0.35c-0.69-0.2-2.78-0.82-3.62-2.37
		c-0.82-1.54,0.13-2.94,0.44-3.4c0.66-0.97,1.45-1.91,2.24-2.85l1.48-1.77c0.28-0.33,0.56-0.65,0.81-0.99
		c0.68-0.9,0.81-1.62,0.44-2.44c-1.42-3.17-1.75-6.67-1.03-10.71c0.24-1.37,1.01-2.58,1.68-3.64c3.61-5.69,8.09-8.76,14.69-9.93
		c12.25-2.18,27.76-5.81,33.72-18.08c1.67-3.45,2.58-7.2,3.16-10.97c0.27-1.77,0.36-3.51,0.33-5.31c-0.02-1.46,0.34-4.38-0.31-5.69
		c0,0-0.22-0.36-0.22-0.35c-0.3,0.69-1.32,4.35-1.63,5.36c-4.94,16.14-18.91,26.39-35.1,29.17c-4.54,0.78-9.11,1.83-13.14,4.14
		c-4.97,2.85-8.85,7.65-11.3,12.77c-2.2,4.59-2,10.27-0.09,14.97c0.23,0.57,0.25,1.13-0.38,2.05c-0.19,0.28-0.4,0.55-0.61,0.82
		l-1.66,2.17c-0.74,0.96-1.57,2.05-2.27,3.17c-0.98,1.55-1.14,3.02-0.48,4.37c0.95,1.95,3.25,2.69,4.01,2.94l0.57,0.18
		c0.06,0.02,0.12,0.04,0.18,0.06c0,0.07,0,0.14,0,0.21v0.56c-0.01,0.8-0.03,2.67,1.88,4.11c0.38,0.29,0.8,0.54,1.28,0.75
		c-0.47,0.93-0.92,2.44,0.24,3.94c0.15,0.19,0.24,0.32,0.35,0.47c-0.01,0.08-0.02,0.17-0.03,0.27l-0.03,0.28
		c-0.06,0.56-0.05,1.13-0.03,1.61c0,0,0.01,0.5,0.01,0.5c0.11,4.12,4.18,6.77,7.89,7.37c5.41,0.88,10.98-0.16,16.39,0
		c13.17,0.38,21.98,9.8,29.72,19.53c0.7,0.88,7.57,11.26,7.23,11.39c0.52-0.2,0.45-0.94,0.28-1.46
		C330.21,351.82,330.1,351.48,329.98,351.14z"/>
	<path d="M266.23,235.01c0.44-0.12,0.87-0.25,1.3-0.38c7.22-2.19,14.19-4.51,20.26-9.13c4.51-3.41,8.46-7.51,12.02-11.89
		c1.86-2.29,3.61-4.66,5.31-7.07c0.84-1.2,1.67-2.41,2.48-3.64c0.57-0.86,1.47-2.15,2.12-3.16c0.06-0.09,0.15-0.2,0.12-0.26
		c-2.86,2.16-5.79,4.24-8.57,6.5c-12.74,10.39-25.63,15.94-42.24,19.79c-8.43,1.96-15.8,7.55-22.02,13.35
		c-6.59,6.15-13.24,12.06-19.16,18.92c-3.13,3.62-7.01,7.68-12.3,6.95c-1.78-0.25-3.33-1.36-4.78-2.35
		c-3.54-2.39-6.45-5.6-9.09-8.92c-5.92-7.46-16.41-7.1-24.16-3.01c-3.5,1.85-11.54,8.33-17.19,14.37c0.29-0.31,3.6,1.15,4.05,1.33
		c1.75,0.66,3.42,1.53,4.98,2.56c5.41,3.59,8.32,8.8,10.82,14.62c3.02,7.04,5.95,14.09,8.8,21.21c3.02,7.54,7.18,13.96,13.2,19.46
		c12.15,11.1,28.56,15.11,43.94,19.64c22.32,6.57,41.74,16.41,52.37,38.78c0.02,0,0.57-0.15,0.48-0.41
		c-7.34-21.91-19.31-39.33-40.12-47.02c-5.95-2.2-12.03-4.21-18.2-5.64c-23.89-5.52-39.41-20.36-48.46-42.65
		c-1.37-3.37-2.93-6.67-4.1-10.1c-2.69-7.88-7.88-10.71-17.83-12.44c0.23,0.04,1.18-0.86,1.41-1.02c0.53-0.37,1.06-0.73,1.61-1.08
		c0.95-0.61,1.93-1.19,2.94-1.71c1.7-0.89,3.49-1.63,5.35-2.12c4.35-1.14,9.13-0.75,13.04,1.53c3.76,2.19,6.73,5.46,10.16,8.1
		c1.89,1.45,3.57,3.2,5.5,4.59c7.23,5.22,15.89-2.48,21.03-6.88c4.57-3.92,8.48-8.73,12.89-12.84c6.25-5.82,13.13-11.11,21-14.55
		C258.71,236.87,262.51,236.06,266.23,235.01z"/>
</g>
</svg>
